<?xml version="1.0" standalone="no"?>
<!DOCTYPE svg PUBLIC "-//W3C//DTD SVG 20010904//EN"
 "http://www.w3.org/TR/2001/REC-SVG-20010904/DTD/svg10.dtd">
<svg version="1.0" xmlns="http://www.w3.org/2000/svg"
 width="1246.000000pt" height="827.000000pt" viewBox="0 0 1246.000000 827.000000"
 preserveAspectRatio="xMidYMid meet">

<g transform="translate(0.000000,827.000000) scale(0.100000,-0.100000)"
fill="#000000" stroke="none">
<path d="M3190 6062 c0 -4 28 -43 63 -87 35 -44 168 -215 296 -380 129 -165
237 -304 242 -309 5 -6 9 160 9 387 l0 397 -305 0 c-168 0 -305 -3 -305 -8z
m590 -362 c0 -192 -2 -350 -4 -350 -2 0 -57 69 -123 153 -297 378 -410 523
-417 535 -6 9 51 12 268 12 l276 0 0 -350z"/>
<path d="M4280 5371 l0 -699 183 -233 182 -234 3 493 2 492 235 0 235 0 0
-797 0 -798 176 -225 c96 -124 179 -229 185 -234 5 -6 9 539 9 1462 l0 1472
-185 0 -185 0 0 -395 0 -395 -235 0 -235 0 0 395 0 395 -185 0 -185 0 0 -699z
m350 284 l0 -395 253 2 252 3 3 393 2 392 165 0 165 0 0 -1432 c0 -1215 -2
-1430 -14 -1418 -7 8 -80 101 -162 205 l-149 190 -5 805 -5 805 -252 3 -253 2
-2 -473 -3 -473 -162 208 -163 208 0 685 0 685 165 0 165 0 0 -395z"/>
<path d="M5540 6035 l0 -35 255 0 255 0 0 -1799 0 -1799 79 -100 c44 -55 85
-103 92 -108 9 -5 43 25 106 92 l92 99 1 1808 0 1807 255 0 255 0 0 35 0 35
-695 0 -695 0 0 -35z m1370 0 c0 -13 -34 -15 -243 -15 -176 0 -246 -3 -255
-12 -9 -9 -12 -426 -12 -1812 l-1 -1801 -82 -89 c-51 -54 -88 -87 -95 -82 -6
4 -43 48 -82 98 l-70 91 0 1797 c0 1630 -1 1798 -16 1804 -9 3 -123 6 -255 6
-206 0 -239 2 -239 15 0 13 82 15 675 15 593 0 675 -2 675 -15z"/>
<path d="M6970 5090 l0 -980 388 0 388 0 37 38 c20 21 37 41 37 45 0 4 -108 7
-240 7 l-240 0 0 935 0 935 -185 0 -185 0 0 -980z m352 28 l3 -933 229 -3 229
-2 -23 -25 -23 -25 -374 0 -373 0 0 960 0 960 165 0 165 0 2 -932z"/>
<path d="M8620 5663 c0 -227 4 -393 9 -387 5 5 113 144 242 309 128 165 261
336 296 380 35 44 63 83 63 87 0 5 -137 8 -305 8 l-305 0 0 -397z m564 365
c-7 -12 -120 -157 -417 -535 -66 -84 -121 -153 -123 -153 -2 0 -4 158 -4 350
l0 350 276 0 c217 0 274 -3 268 -12z"/>
</g>
</svg>
