<?xml version="1.0" standalone="no"?>
<!DOCTYPE svg PUBLIC "-//W3C//DTD SVG 20010904//EN"
 "http://www.w3.org/TR/2001/REC-SVG-20010904/DTD/svg10.dtd">
<svg version="1.0" xmlns="http://www.w3.org/2000/svg"
 width="1246.000000pt" height="827.000000pt" viewBox="0 0 1246.000000 827.000000"
 preserveAspectRatio="xMidYMid meet">

<g transform="translate(0.000000,827.000000) scale(0.100000,-0.100000)"
fill="#000000" stroke="none">
<path d="M0 4135 l0 -4135 6230 0 6230 0 0 4135 0 4135 -6230 0 -6230 0 0
-4135z m3800 1538 c0 -227 -4 -393 -9 -387 -5 5 -113 144 -242 309 -128 165
-261 336 -296 380 -35 44 -63 83 -63 87 0 5 137 8 305 8 l305 0 0 -397z m850
2 l0 -395 235 0 235 0 0 395 0 395 185 0 185 0 0 -1472 c0 -923 -4 -1468 -9
-1462 -6 5 -89 110 -185 234 l-176 225 0 798 0 797 -235 0 -235 0 -2 -492 -3
-493 -182 234 -183 233 0 699 0 699 185 0 185 0 0 -395z m2280 360 l0 -35
-255 0 -255 0 0 -1807 -1 -1808 -92 -99 c-63 -67 -97 -97 -106 -92 -7 5 -48
53 -92 108 l-79 100 0 1799 0 1799 -255 0 -255 0 0 35 0 35 695 0 695 0 0 -35z
m410 -900 l0 -935 240 0 c132 0 240 -3 240 -7 0 -4 -17 -24 -37 -45 l-37 -38
-388 0 -388 0 0 980 0 980 185 0 185 0 0 -935z m1890 917 c0 -4 -28 -43 -63
-87 -35 -44 -168 -215 -296 -380 -129 -165 -237 -304 -242 -309 -5 -6 -9 160
-9 387 l0 397 305 0 c168 0 305 -3 305 -8z"/>
</g>
</svg>
